<svg width="22" height="22" viewBox="0 0 22 22" fill="none" xmlns="http://www.w3.org/2000/svg">
<path opacity="0.4" d="M10.9999 20.8543C5.55761 20.8543 1.14575 16.4425 1.14575 11.0002C1.14575 5.55786 5.55761 1.146 10.9999 1.146C16.4423 1.146 20.8541 5.55786 20.8541 11.0002C20.8541 16.4425 16.4423 20.8543 10.9999 20.8543Z" fill="#51C55A"/>
<path fill-rule="evenodd" clip-rule="evenodd" d="M15.3425 8.86958C15.6845 8.49639 15.6593 7.91653 15.2861 7.57444C14.913 7.23235 14.3331 7.25756 13.991 7.63075L9.5963 12.425L7.9816 10.8103C7.62361 10.4524 7.04322 10.4524 6.68523 10.8103C6.32725 11.1683 6.32725 11.7487 6.68523 12.1067L8.9769 14.3983C9.15369 14.5752 9.395 14.6721 9.64497 14.6666C9.89495 14.6611 10.1318 14.5539 10.3008 14.3696L15.3425 8.86958Z" fill="#51C55A"/>
</svg>
